<?xml version="1.0" encoding="UTF-8" standalone="no"?>
<!-- Uploaded to: SVG Repo, www.svgrepo.com, Generator: SVG Repo Mixer Tools -->

<svg
   fill="#000000"
   height="800px"
   width="800px"
   version="1.1"
   id="Layer_1"
   viewBox="0 0 512 512"
   xml:space="preserve"
   sodipodi:docname="BiotechnologyDesignation.svg"
   inkscape:export-filename="BiotechnologyDesignation.png"
   inkscape:export-xdpi="7.6799998"
   inkscape:export-ydpi="7.6799998"
   inkscape:version="1.3.2 (091e20e, 2023-11-25, custom)"
   xmlns:inkscape="http://www.inkscape.org/namespaces/inkscape"
   xmlns:sodipodi="http://sodipodi.sourceforge.net/DTD/sodipodi-0.dtd"
   xmlns="http://www.w3.org/2000/svg"
   xmlns:svg="http://www.w3.org/2000/svg"><defs
   id="defs18">
	
</defs><sodipodi:namedview
   id="namedview18"
   pagecolor="#ffffff"
   bordercolor="#000000"
   borderopacity="0.25"
   inkscape:showpageshadow="2"
   inkscape:pageopacity="0.0"
   inkscape:pagecheckerboard="true"
   inkscape:deskcolor="#d1d1d1"
   inkscape:zoom="0.71859727"
   inkscape:cx="283.88641"
   inkscape:cy="368.07822"
   inkscape:window-width="1920"
   inkscape:window-height="1009"
   inkscape:window-x="-8"
   inkscape:window-y="-8"
   inkscape:window-maximized="1"
   inkscape:current-layer="Layer_1" />







<g
   id="g16"
   style="fill:#ffffff;fill-opacity:1;stroke:none;stroke-opacity:1"
   transform="matrix(0.93750008,0,0,0.93750008,15.999979,15.999979)">
	<g
   id="g15"
   style="fill:#ffffff;fill-opacity:1;stroke:none;stroke-opacity:1">
		<path
   id="path14"
   style="fill:#ffffff;fill-opacity:1;stroke:none;stroke-opacity:1"
   d="m 352.7108,2.2740513e-5 c -38.22996,0 -75.19702,13.746334259487 -104.09199,38.710309259487 -26.16698,22.607978 -44.20633,53.06487 -51.51133,86.539838 -1.231,-0.025 -2.44986,-0.0947 -3.68585,-0.0947 -106.652898,0 -193.421607259487,86.77006 -193.421607259487,193.42295 0,106.6529 86.768709259487,193.42161 193.421607259487,193.42161 106.65289,0 193.42295,-86.76871 193.42295,-193.42161 0,-1.225 -0.069,-2.43572 -0.092,-3.65472 73.03088,-15.81504 125.2474,-80.04858 125.2474,-155.6345 C 511.99998,71.456285 440.54371,2.2740513e-5 352.7108,2.2740513e-5 Z m 0,102.399987259487 c 31.36997,0 56.88918,25.51922 56.88918,56.88919 0,29.83597 -23.09681,54.33107 -52.34378,56.65907 -15.53599,-24.71198 -36.49214,-45.66713 -61.20312,-61.20311 2.328,-29.24698 26.82175,-52.34515 56.65772,-52.34515 z M 175.91414,212.87695 c 67.93667,0 123.20891,55.27332 123.20891,123.20891 0,67.93559 -55.27332,123.20756 -123.20891,123.20756 -67.93559,0 -123.207563,-55.27197 -123.207563,-123.20756 0,-67.93559 55.271973,-123.20891 123.207563,-123.20891 z" />
	</g>
</g>
<g
   id="g17"
   style="fill:#ffffff;fill-opacity:1;stroke:none;stroke-opacity:1">
		
	</g>
</svg>
