<?xml version="1.0" encoding="UTF-8" standalone="no"?>
<!-- Uploaded to: SVG Repo, www.svgrepo.com, Generator: SVG Repo Mixer Tools -->

<svg
   fill="#000000"
   height="64"
   width="64"
   version="1.1"
   id="wood"
   viewBox="0 0 20.48 20.48"
   xml:space="preserve"
   sodipodi:docname="Ferny_WoodNetwork.svg"
   inkscape:export-filename="Ferny_WoodNetwork.png"
   inkscape:export-xdpi="96"
   inkscape:export-ydpi="96"
   inkscape:version="1.3.2 (091e20e, 2023-11-25, custom)"
   xmlns:inkscape="http://www.inkscape.org/namespaces/inkscape"
   xmlns:sodipodi="http://sodipodi.sourceforge.net/DTD/sodipodi-0.dtd"
   xmlns="http://www.w3.org/2000/svg"
   xmlns:svg="http://www.w3.org/2000/svg"><defs
   id="defs1" /><sodipodi:namedview
   id="namedview1"
   pagecolor="#ffffff"
   bordercolor="#000000"
   borderopacity="0.25"
   inkscape:showpageshadow="2"
   inkscape:pageopacity="0.0"
   inkscape:pagecheckerboard="true"
   inkscape:deskcolor="#d1d1d1"
   inkscape:zoom="8.13"
   inkscape:cx="23.98524"
   inkscape:cy="34.00984"
   inkscape:window-width="1920"
   inkscape:window-height="1009"
   inkscape:window-x="-8"
   inkscape:window-y="-8"
   inkscape:window-maximized="1"
   inkscape:current-layer="wood" />
<path
   d="M 19.839977,10.168127 19.84,2.7944 H 11.211715 L 0.6400915,8.4566536 0.64,14.054926 v 3.630579 h 10.571715 l 8.628262,-7.485388 z M 10.240035,9.8482236 V 16.0863 H 9.2444843 c 0,-0.175948 -0.01181,-0.367888 -0.023699,-0.543832 C 9.1022644,13.383134 8.4741245,11.463725 7.4430195,9.8482236 Z m -8.6280973,0 H 6.103763 c 1.2799919,1.5035344 2.0029509,3.5029194 2.1333206,5.8062064 0.01181,0.143968 0.01181,0.28791 0.01181,0.43187 H 6.2341325 V 15.862377 C 6.1393179,14.278855 5.6059879,12.823306 4.7052519,11.799622 3.8282207,10.79193 2.7615604,10.280091 1.6356415,10.360066 V 9.8642176 h -0.023704 z m 0,1.7914474 c 0.9125872,-0.07998 1.7540647,0.335896 2.4414668,1.13565 0.6992547,0.799752 1.1259181,1.935402 1.1851775,3.183016 v 0.112102 H 1.6119365 Z"
   id="path1"
   style="fill:#ffffff;stroke-width:0.137683"
   sodipodi:nodetypes="cccccccccccccccccccccccccccccccc" />
</svg>
