<?xml version="1.0" encoding="UTF-8" standalone="no"?>
<!-- Uploaded to: SVG Repo, www.svgrepo.com, Generator: SVG Repo Mixer Tools -->

<svg
   fill="#000000"
   width="64"
   height="64"
   viewBox="-6 0 2.56 2.56"
   version="1.1"
   id="svg1"
   sodipodi:docname="Ferny_Spaceport.svg"
   inkscape:version="1.3.2 (091e20e, 2023-11-25, custom)"
   inkscape:export-filename="Ferny_Spaceport.png"
   inkscape:export-xdpi="96"
   inkscape:export-ydpi="96"
   xmlns:inkscape="http://www.inkscape.org/namespaces/inkscape"
   xmlns:sodipodi="http://sodipodi.sourceforge.net/DTD/sodipodi-0.dtd"
   xmlns="http://www.w3.org/2000/svg"
   xmlns:svg="http://www.w3.org/2000/svg"
   xmlns:rdf="http://www.w3.org/1999/02/22-rdf-syntax-ns#"
   xmlns:cc="http://creativecommons.org/ns#"
   xmlns:dc="http://purl.org/dc/elements/1.1/">
  <defs
     id="defs1" />
  <sodipodi:namedview
     id="namedview1"
     pagecolor="#ffffff"
     bordercolor="#000000"
     borderopacity="0.25"
     inkscape:showpageshadow="2"
     inkscape:pageopacity="0.0"
     inkscape:pagecheckerboard="true"
     inkscape:deskcolor="#d1d1d1"
     inkscape:zoom="8.13"
     inkscape:cx="37.392374"
     inkscape:cy="42.00492"
     inkscape:window-width="1920"
     inkscape:window-height="1009"
     inkscape:window-x="-8"
     inkscape:window-y="-8"
     inkscape:window-maximized="1"
     inkscape:current-layer="svg1" />
  <title
     id="title1">space-shuttle</title>
  <path
     d="M -3.5547959,0.11439997 C -3.6046569,0.06479999 -3.6694762,0.04496 -3.7392815,0.04 c -0.2941799,0 -0.7429287,0.42159981 -1.0520667,0.73903971 l -0.029916,0.0347199 c -0.044874,0.0347199 -0.2742353,0.0247998 -0.40886,0.0198402 -0.1994438,-0.00992 -0.3889156,-0.0148801 -0.513568,0.0297598 -0.064819,0.0247998 -0.1445967,0.11407989 -0.1944578,0.18351989 -0.029917,0.03968 -0.029917,0.09424 0.00499,0.13392 l 0.3440409,0.4067197 c -0.054848,0.06944 -0.079778,0.1488001 -0.079778,0.2331201 0,0.06944 0.019944,0.1388797 0.054848,0.1984 l -0.059833,0.05952 c -0.039889,0.03968 -0.039889,0.10912 0,0.1487999 0.019944,0.01984 0.049861,0.02976 0.074791,0.02976 0.024931,0 0.054847,-0.00992 0.074791,-0.02976 l 0.059833,-0.05952 c 0.059833,0.034719 0.1296385,0.054561 0.1994439,0.054561 0.084764,0 0.1645413,-0.0248 0.2293605,-0.06944 L -4.6268026,2.4952 c 0.019945,0.014881 0.044874,0.0248 0.069805,0.0248 0.024931,0 0.044875,-0.00496 0.064819,-0.019839 0.069805,-0.054561 0.159555,-0.1339199 0.1844855,-0.1934399 0.049861,-0.11904 0.039889,-0.3075199 0.029916,-0.5108799 -0.00499,-0.1339199 -0.01496,-0.3620799 0.019945,-0.4067197 l 0.034902,-0.034719 c 0.3191116,-0.3124812 0.74293,-0.75888106 0.74293,-1.04656097 -0.00499,-0.07936 -0.029917,-0.14383994 -0.074791,-0.19343992 z M -4.377502,1.2006396 -4.412404,1.2353586 c -0.094735,0.094239 -0.08975,0.2777599 -0.079779,0.5654397 0.00499,0.15872 0.014959,0.3372799 -0.014957,0.4166398 -0.00499,0.00992 -0.029916,0.034719 -0.054848,0.054561 L -4.9708477,1.9297592 c -0.019945,-0.014879 -0.044874,-0.0248 -0.069805,-0.0248 -0.00499,0 -0.00499,0 -0.00997,0 -0.029917,0 -0.054848,0.014881 -0.069805,0.039681 -0.00499,0.00496 -0.00997,0.00992 -0.00997,0.014879 -0.069805,0.06944 -0.1944579,0.06944 -0.2692493,0 -0.034902,-0.034719 -0.054848,-0.08432 -0.054848,-0.13392 0,-0.0496 0.019945,-0.0992 0.054848,-0.1339198 0.00499,-0.00496 0.00997,-0.00992 0.014958,-0.00992 0.019945,-0.01984 0.034902,-0.044639 0.039889,-0.06944 0,-0.02976 -0.00499,-0.054561 -0.024931,-0.079361 L -5.713776,1.1262378 c 0.024931,-0.0248 0.044874,-0.044642 0.054848,-0.05456 0.079777,-0.029759 0.2592771,-0.024799 0.4188323,-0.014879 0.2891936,0.00992 0.4736792,0.014879 0.568415,-0.0793604 l 0.034902,-0.0347199 c 0.5783872,-0.59023976 0.8127337,-0.67455973 0.9024835,-0.67951972 0.024931,0 0.029917,0.00496 0.034902,0.00992 0.00499,0.00496 0.00997,0.00992 0.00997,0.03472 -0.00499,0.07936 -0.094735,0.31743984 -0.6880813,0.89279962 z"
     id="path1"
     style="fill:#ffffff;stroke-width:0.124326" />
  <metadata
     id="metadata1">
    <rdf:RDF>
      <cc:Work
         rdf:about="">
        <dc:title>space-shuttle</dc:title>
      </cc:Work>
    </rdf:RDF>
  </metadata>
</svg>
