<?xml version="1.0" encoding="UTF-8" standalone="no"?>
<!-- Uploaded to: SVG Repo, www.svgrepo.com, Generator: SVG Repo Mixer Tools -->

<svg
   version="1.1"
   id="_x32_"
   width="800px"
   height="800px"
   viewBox="0 0 512 512"
   xml:space="preserve"
   sodipodi:docname="Ferny_OxygenNetwork.svg"
   inkscape:version="1.3.2 (091e20e, 2023-11-25, custom)"
   xmlns:inkscape="http://www.inkscape.org/namespaces/inkscape"
   xmlns:sodipodi="http://sodipodi.sourceforge.net/DTD/sodipodi-0.dtd"
   xmlns="http://www.w3.org/2000/svg"
   xmlns:svg="http://www.w3.org/2000/svg"><defs
   id="defs1" /><sodipodi:namedview
   id="namedview1"
   pagecolor="#ffffff"
   bordercolor="#000000"
   borderopacity="0.25"
   inkscape:showpageshadow="2"
   inkscape:pageopacity="0.0"
   inkscape:pagecheckerboard="true"
   inkscape:deskcolor="#d1d1d1"
   inkscape:zoom="0.71859727"
   inkscape:cx="450.87842"
   inkscape:cy="523.93742"
   inkscape:window-width="1920"
   inkscape:window-height="1009"
   inkscape:window-x="-8"
   inkscape:window-y="-8"
   inkscape:window-maximized="1"
   inkscape:current-layer="_x32_" />
<style
   type="text/css"
   id="style1">
<![CDATA[
	.st0{fill:#000000;}
]]>
</style>
<g
   id="g1"
   transform="matrix(0.9375,0,0,0.93749996,16,18.974047)"
   style="fill:#ffffff">
	<path
   class="st0"
   d="M 459.109,181.602 C 413.89,114.914 384.765,89.633 343.218,104.227 c -21.531,7.563 -36.625,26.953 -36.625,49.781 v 30.297 L 279.718,166.836 V 47.586 h -47.422 v 119.25 l -26.891,17.469 v -30.297 c 0,-22.828 -15.094,-42.219 -36.625,-49.781 C 127.233,89.633 98.108,114.915 52.874,181.602 6.141,250.523 0,292.742 0,329.523 v 45.125 c 0,34.016 30.531,81.594 81.625,88.75 69.438,9.719 123.781,-51.891 123.781,-116.109 V 240.867 L 256,207.992 l 50.594,32.875 v 106.422 c 0,64.219 54.344,125.828 123.781,116.109 C 481.469,456.242 512,408.664 512,374.648 v -45.125 c 0,-36.781 -6.156,-79 -52.891,-147.921 z"
   id="path1"
   style="fill:#ffffff" />
</g>
</svg>
