<?xml version="1.0" encoding="UTF-8" standalone="no"?>
<!-- Uploaded to: SVG Repo, www.svgrepo.com, Generator: SVG Repo Mixer Tools -->

<svg
   height="800px"
   width="800px"
   version="1.1"
   id="_x32_"
   viewBox="0 0 512 512"
   xml:space="preserve"
   sodipodi:docname="Ferny_ProductionInfrastructure.svg"
   inkscape:version="1.3.2 (091e20e, 2023-11-25, custom)"
   inkscape:export-filename="Ferny_ProductionInfrastructure.png"
   inkscape:export-xdpi="7.6799998"
   inkscape:export-ydpi="7.6799998"
   xmlns:inkscape="http://www.inkscape.org/namespaces/inkscape"
   xmlns:sodipodi="http://sodipodi.sourceforge.net/DTD/sodipodi-0.dtd"
   xmlns="http://www.w3.org/2000/svg"
   xmlns:svg="http://www.w3.org/2000/svg"><defs
   id="defs1" /><sodipodi:namedview
   id="namedview1"
   pagecolor="#ffffff"
   bordercolor="#000000"
   borderopacity="0.25"
   inkscape:showpageshadow="2"
   inkscape:pageopacity="0.0"
   inkscape:pagecheckerboard="true"
   inkscape:deskcolor="#d1d1d1"
   inkscape:zoom="1.01625"
   inkscape:cx="496.92497"
   inkscape:cy="406.88807"
   inkscape:window-width="1920"
   inkscape:window-height="1009"
   inkscape:window-x="-8"
   inkscape:window-y="-8"
   inkscape:window-maximized="1"
   inkscape:current-layer="_x32_" />
<style
   type="text/css"
   id="style1">
	.st0{fill:#000000;}
</style>
<g
   id="g1"
   transform="matrix(0.9375,0,0,0.93750183,16,16)"
   style="fill:#ffffff">
	<path
   id="path1"
   class="st0"
   d="M 233.39333 0 C 224.71535 0 217.16533 5.977655 215.16533 14.418639 L 202.10133 69.78653 C 188.15537 73.818522 174.83263 79.270846 162.37067 86.163832 L 114.06667 56.29189 C 106.67967 51.7429 97.121321 52.850564 90.981333 58.990552 L 58.989333 90.970489 C 52.859345 97.110477 51.742343 106.67913 56.301333 114.05711 L 86.162667 162.37035 C 79.280681 174.83233 73.818992 188.15663 69.796 202.09161 L 14.418667 215.15558 C 5.9786832 217.16458 0 224.70356 0 233.39154 L 0 278.61812 C 0 287.2961 5.9776832 294.85442 14.418667 296.84342 L 69.797333 309.90873 C 73.829325 323.85469 79.282014 337.16834 86.164 349.61932 L 56.292 397.94322 C 51.74301 405.34122 52.850679 414.89953 58.990667 421.04051 L 90.970667 453.02045 C 97.110655 459.16043 106.67935 460.27744 114.05733 455.70844 L 162.38 425.8365 C 174.84298 432.7185 188.16537 438.17982 202.10133 442.2018 L 215.16533 497.56836 C 217.16533 506.03134 224.71535 511.999 233.39333 511.999 L 278.62933 511.999 C 287.30631 511.999 294.856 506.03134 296.856 497.56836 L 309.92 442.2018 C 323.85698 438.18082 337.17902 432.7185 349.632 425.8365 L 397.944 455.69644 C 405.34198 460.26644 414.89067 459.14843 421.03067 453.00845 L 453.02 421.01918 C 459.14998 414.89018 460.26865 405.33154 455.69867 397.93256 L 425.83733 349.62998 C 432.73033 337.17802 438.18135 323.85569 442.21333 309.90873 L 497.58 296.84342 C 506.04298 294.84242 512 287.3051 512 278.61812 L 512 233.37954 C 512 224.71356 506.03231 217.16523 497.56933 215.16625 L 442.224 202.10227 C 438.192 188.15631 432.72898 174.83233 425.848 162.37035 L 455.69867 114.06644 C 460.26865 106.66946 459.15065 97.121144 453.01067 90.981156 L 421.02 58.990552 C 414.89102 52.861564 405.34198 51.743233 397.944 56.313223 L 349.652 86.163832 C 337.19002 79.281846 323.86698 73.819522 309.92 69.78653 L 296.856 14.418639 C 294.856 5.977655 287.30531 -3.5527137e-15 278.62933 0 L 233.39333 0 z M 236.62 131.40774 L 275.392 131.40774 C 279.5022 131.40774 282.81067 134.71621 282.81067 138.8264 L 282.81067 157.24903 A 102.4 102.3998 0 0 1 358.4 255.9995 A 102.4 102.3998 0 0 1 256 358.3993 A 102.4 102.3998 0 0 1 153.6 255.9995 A 102.4 102.3998 0 0 1 229.20133 157.57169 L 229.20133 138.8264 C 229.20133 134.71621 232.5098 131.40774 236.62 131.40774 z "
   style="fill:#ffffff" />
</g>
</svg>
