<?xml version="1.0" encoding="UTF-8" standalone="no"?>
<!-- Uploaded to: SVG Repo, www.svgrepo.com, Generator: SVG Repo Mixer Tools -->

<svg
   fill="#000000"
   width="64"
   height="64"
   viewBox="-8 0 40.96 40.96"
   version="1.1"
   id="svg1"
   sodipodi:docname="Radiology.svg"
   inkscape:version="1.3.2 (091e20e, 2023-11-25, custom)"
   inkscape:export-filename="Radiology.png"
   inkscape:export-xdpi="96"
   inkscape:export-ydpi="96"
   xmlns:inkscape="http://www.inkscape.org/namespaces/inkscape"
   xmlns:sodipodi="http://sodipodi.sourceforge.net/DTD/sodipodi-0.dtd"
   xmlns="http://www.w3.org/2000/svg"
   xmlns:svg="http://www.w3.org/2000/svg">
  <defs
     id="defs1" />
  <sodipodi:namedview
     id="namedview1"
     pagecolor="#ffffff"
     bordercolor="#000000"
     borderopacity="0.25"
     inkscape:showpageshadow="2"
     inkscape:pageopacity="0.0"
     inkscape:pagecheckerboard="true"
     inkscape:deskcolor="#d1d1d1"
     inkscape:zoom="8.13"
     inkscape:cx="47.847479"
     inkscape:cy="26.752768"
     inkscape:window-width="1920"
     inkscape:window-height="1009"
     inkscape:window-x="-8"
     inkscape:window-y="-8"
     inkscape:window-maximized="1"
     inkscape:current-layer="svg1" />
  <path
     d="m 18.89515,19.306056 h 12.126392 c 0.727903,0 1.343824,-0.615919 1.295829,-1.343822 C 31.909426,11.899038 28.765841,6.5877414 24.118458,3.2281866 23.526535,2.8042427 22.686647,2.9962172 22.302697,3.6121356 L 15.87155,13.882775 c 1.80776,1.143848 3.0236,3.135584 3.0236,5.423281 z m -3.0236,5.415283 c -0.98387,0.615918 -2.143716,0.991868 -3.39155,0.991868 -1.247835,0 -2.399683,-0.37595 -3.3915509,-0.991868 L 2.6573015,34.999977 c -0.3839493,0.615916 -0.1919747,1.447808 0.4479406,1.791763 2.7916301,1.503801 5.983207,2.367684 9.3747579,2.367684 3.39155,0 6.583127,-0.863883 9.374758,-2.367684 0.639914,-0.343955 0.831889,-1.183844 0.447939,-1.791763 z M 12.48,23.145548 c 2.119719,0 3.839491,-1.719773 3.839491,-3.839492 0,-2.119719 -1.719772,-3.839491 -3.839491,-3.839491 -2.11972,0 -3.8394914,1.719772 -3.8394914,3.839491 0,2.119719 1.7197714,3.839492 3.8394914,3.839492 z M -6.0615429,19.306056 H 6.06485 c 0,-2.287697 1.2158387,-4.279433 3.0235991,-5.415282 L 2.6573015,3.6201346 C 2.2733522,3.0042162 1.4334637,2.8042427 0.84154233,3.2361854 -3.8058417,6.5957403 -6.9494252,11.907036 -7.3573712,17.970233 c -0.047994,0.719904 0.5679248,1.335823 1.2958283,1.335823 z"
     id="path1"
     style="stroke-width:0.0799895;fill:#ffffff" />
</svg>
